<mxfile host="app.diagrams.net" modified="2024-05-11T17:37:49.190Z" agent="Mozilla/5.0 (Macintosh; Intel Mac OS X 10_15_7) AppleWebKit/605.1.15 (KHTML, like Gecko) Version/17.4.1 Safari/605.1.15" version="24.4.0" etag="Yzv4mTaZ1a5EvWFL2ojQ" type="github">
  <diagram name="Page-1" id="6P00Ely-2S5ITaYIXF85">
    <mxGraphModel>
      <root>
        <mxCell id="0" />
        <mxCell id="1" parent="0" />
      </root>
    </mxGraphModel>
  </diagram>
</mxfile>
